<?xml version="1.0" encoding="UTF-8" standalone="no"?>
<svg
   xmlns:dc="http://purl.org/dc/elements/1.1/"
   xmlns:cc="http://creativecommons.org/ns#"
   xmlns:rdf="http://www.w3.org/1999/02/22-rdf-syntax-ns#"
   xmlns:svg="http://www.w3.org/2000/svg"
   xmlns="http://www.w3.org/2000/svg"
   xmlns:sodipodi="http://sodipodi.sourceforge.net/DTD/sodipodi-0.dtd"
   xmlns:inkscape="http://www.inkscape.org/namespaces/inkscape"
   data-name="Layer 1"
   viewBox="0 0 16 16"
   version="1.1"
   id="svg4"
   sodipodi:docname="calculator3.svg"
   width="16"
   height="16"
   inkscape:version="1.0 (4035a4fb49, 2020-05-01)">
  <metadata
     id="metadata10">
    <rdf:RDF>
      <cc:Work
         rdf:about="">
        <dc:format>image/svg+xml</dc:format>
        <dc:type
           rdf:resource="http://purl.org/dc/dcmitype/StillImage" />
        <dc:title></dc:title>
      </cc:Work>
    </rdf:RDF>
  </metadata>
  <defs
     id="defs8" />
  <sodipodi:namedview
     inkscape:document-rotation="0"
     pagecolor="#ffffff"
     bordercolor="#666666"
     borderopacity="1"
     objecttolerance="10"
     gridtolerance="10"
     guidetolerance="10"
     inkscape:pageopacity="0"
     inkscape:pageshadow="2"
     inkscape:window-width="1920"
     inkscape:window-height="1017"
     id="namedview6"
     showgrid="false"
     inkscape:zoom="35.416667"
     inkscape:cx="7.9905882"
     inkscape:cy="9.7411765"
     inkscape:window-x="-8"
     inkscape:window-y="-8"
     inkscape:window-maximized="1"
     inkscape:current-layer="svg4" />
  <path
     d="m 8.2813713,10.096387 a 0.39629213,0.39629213 0 0 0 -0.06342,-0.04755 0.22192364,0.22192364 0 0 0 -0.06736,-0.03565 0.23777533,0.23777533 0 0 0 -0.0753,-0.023801 0.36855171,0.36855171 0 0 0 -0.225884,0.023801 0.35666295,0.35666295 0 0 0 -0.213998,0.213998 0.33288541,0.33288541 0 0 0 -0.0317,0.150589 0.39629213,0.39629213 0 0 0 0.02773,0.150585 0.5785866,0.5785866 0 0 0 0.08718,0.130779 0.39629213,0.39629213 0 0 0 0.281381,0.114929 0.33288541,0.33288541 0 0 0 0.150592,-0.03172 0.45573584,0.45573584 0 0 0 0.13078,-0.08324 0.39629213,0.39629213 0 0 0 0.114917,-0.281368 0.39629213,0.39629213 0 0 0 -0.03169,-0.150587 0.39629213,0.39629213 0 0 0 -0.08322,-0.13078 z M 6.6327933,8.4636625 a 0.22192364,0.22192364 0 0 0 -0.06737,-0.03566 0.23777533,0.23777533 0 0 0 -0.0753,-0.03173 0.34081124,0.34081124 0 0 0 -0.154555,0 l -0.07133,0.02382 -0.07133,0.03566 -0.05944,0.04755 a 0.4161069,0.4161069 0 0 0 -0.114925,0.289298 0.39629213,0.39629213 0 0 0 0.114925,0.281361 0.45573584,0.45573584 0 0 0 0.130775,0.08322 0.39629213,0.39629213 0 0 0 0.546884,-0.364585 0.4161069,0.4161069 0 0 0 -0.114924,-0.281373 z m 0.06341,1.6327245 a 0.39629213,0.39629213 0 0 0 -0.130777,-0.08322 0.39629213,0.39629213 0 0 0 -0.22985,-0.03171 l -0.07133,0.023801 a 0.30118207,0.30118207 0 0 0 -0.07133,0.03565 0.6261416,0.6261416 0 0 0 -0.05944,0.04754 0.39629213,0.39629213 0 0 0 -0.08322,0.130776 0.37251466,0.37251466 0 0 0 0,0.301182 0.45573584,0.45573584 0 0 0 0.08322,0.130779 0.39629213,0.39629213 0 0 0 0.281367,0.12285 0.33288541,0.33288541 0 0 0 0.150591,-0.03173 0.45573584,0.45573584 0 0 0 0.130777,-0.08323 0.45573584,0.45573584 0 0 0 0.08322,-0.130775 0.37251466,0.37251466 0 0 0 0,-0.301173 0.39629213,0.39629213 0 0 0 -0.08322,-0.130777 z m 1.153208,-1.6683905 a 0.39629213,0.39629213 0 0 0 -0.130783,0.08322 0.4161069,0.4161069 0 0 0 -0.114917,0.281372 0.39629213,0.39629213 0 0 0 0.54688,0.364591 0.45573584,0.45573584 0 0 0 0.13078,-0.08323 0.39629213,0.39629213 0 0 0 0.114917,-0.281366 0.4161069,0.4161069 0 0 0 -0.114917,-0.281372 0.39629213,0.39629213 0 0 0 -0.431963,-0.08321 z m 2.017127,1.6683905 a 0.45573584,0.45573584 0 0 0 -0.130771,-0.08322 0.39629213,0.39629213 0 0 0 -0.431967,0.08322 0.39629213,0.39629213 0 0 0 -0.08322,0.130781 0.37251466,0.37251466 0 0 0 0,0.301171 0.45573584,0.45573584 0 0 0 0.08322,0.130779 0.39629213,0.39629213 0 0 0 0.281372,0.114927 0.33288541,0.33288541 0 0 0 0.150595,-0.03172 0.45573584,0.45573584 0 0 0 0.130771,-0.08323 0.39629213,0.39629213 0 0 0 0.08323,-0.431953 0.39629213,0.39629213 0 0 0 -0.08323,-0.130769 z M 9.5851693,5.2259545 h -3.170338 a 0.39629213,0.39629213 0 0 0 -0.396291,0.396291 v 1.585169 a 0.39629213,0.39629213 0 0 0 0.396291,0.396289 h 3.170338 a 0.39629213,0.39629213 0 0 0 0.39629,-0.396289 v -1.585169 a 0.39629213,0.39629213 0 0 0 -0.39629,-0.396291 z m -0.396294,1.585168 h -2.377751 v -0.792584 h 2.377751 z M 10.377756,3.6407855 H 5.6222467 a 1.188876,1.188876 0 0 0 -1.188876,1.188876 V 11.17033 a 1.188876,1.188876 0 0 0 1.188876,1.188885 H 10.377756 A 1.188876,1.188876 0 0 0 11.566629,11.17033 V 4.8296615 a 1.188876,1.188876 0 0 0 -1.188873,-1.188876 z m 0.396287,7.5295445 a 0.39629213,0.39629213 0 0 1 -0.396287,0.396302 H 5.6222467 A 0.39629213,0.39629213 0 0 1 5.2259557,11.17033 V 4.8296615 a 0.39629213,0.39629213 0 0 1 0.396291,-0.396291 h 4.7555093 a 0.39629213,0.39629213 0 0 1 0.396287,0.396291 z M 9.8031253,8.4636625 a 0.22192364,0.22192364 0 0 0 -0.06736,-0.03566 0.23777533,0.23777533 0 0 0 -0.0753,-0.02382 0.34081124,0.34081124 0 0 0 -0.154552,0 l -0.07133,0.02382 -0.07133,0.03566 -0.05945,0.04755 a 0.4161069,0.4161069 0 0 0 -0.114928,0.281373 0.39629213,0.39629213 0 0 0 0.546889,0.364591 0.45573584,0.45573584 0 0 0 0.130771,-0.08323 0.39629213,0.39629213 0 0 0 0.114924,-0.281365 0.4161069,0.4161069 0 0 0 -0.114924,-0.281373 z"
     id="path2"
     style="stroke-width:0.396292" />
  <circle
     r="1.637647"
     cy="8"
     cx="8"
     id="path13"
     style="fill:#ff0000;fill-rule:evenodd" />
</svg>
