<?xml version="1.0" encoding="UTF-8" standalone="no"?>
<svg
   xmlns:dc="http://purl.org/dc/elements/1.1/"
   xmlns:cc="http://creativecommons.org/ns#"
   xmlns:rdf="http://www.w3.org/1999/02/22-rdf-syntax-ns#"
   xmlns:svg="http://www.w3.org/2000/svg"
   xmlns="http://www.w3.org/2000/svg"
   xmlns:sodipodi="http://sodipodi.sourceforge.net/DTD/sodipodi-0.dtd"
   xmlns:inkscape="http://www.inkscape.org/namespaces/inkscape"
   inkscape:version="1.0 (4035a4fb49, 2020-05-01)"
   height="16"
   width="16"
   sodipodi:docname="calculator 2.svg"
   id="svg4"
   version="1.1"
   viewBox="0 0 16 16"
   data-name="Layer 1">
  <metadata
     id="metadata10">
    <rdf:RDF>
      <cc:Work
         rdf:about="">
        <dc:format>image/svg+xml</dc:format>
        <dc:type
           rdf:resource="http://purl.org/dc/dcmitype/StillImage" />
        <dc:title></dc:title>
      </cc:Work>
    </rdf:RDF>
  </metadata>
  <defs
     id="defs8" />
  <sodipodi:namedview
     inkscape:current-layer="svg4"
     inkscape:window-maximized="1"
     inkscape:window-y="-8"
     inkscape:window-x="-8"
     inkscape:cy="9.7411765"
     inkscape:cx="7.9905882"
     inkscape:zoom="35.416667"
     showgrid="false"
     id="namedview6"
     inkscape:window-height="1017"
     inkscape:window-width="1920"
     inkscape:pageshadow="2"
     inkscape:pageopacity="0"
     guidetolerance="10"
     gridtolerance="10"
     objecttolerance="10"
     borderopacity="1"
     bordercolor="#666666"
     pagecolor="#ffffff" />
  <path
     style="stroke-width:0.727272"
     id="path2"
     d="m 8.5163708,11.847273 a 0.72727248,0.72727248 0 0 0 -0.116378,-0.08726 0.40727268,0.40727268 0 0 0 -0.1236274,-0.06542 0.43636358,0.43636358 0 0 0 -0.1381906,-0.04368 0.67636346,0.67636346 0 0 0 -0.4145402,0.04368 0.6545453,0.6545453 0 0 0 -0.3927278,0.392728 0.61090892,0.61090892 0 0 0 -0.05818,0.27636 0.72727248,0.72727248 0 0 0 0.050893,0.276353 1.061818,1.061818 0 0 0 0.1599945,0.240006 0.72727248,0.72727248 0 0 0 0.5163877,0.210915 0.61090892,0.61090892 0 0 0 0.2763662,-0.05822 A 0.83636316,0.83636316 0 0 0 8.5163731,12.879978 0.72727248,0.72727248 0 0 0 8.7272676,12.363615 0.72727248,0.72727248 0 0 0 8.6691026,12.087258 0.72727248,0.72727248 0 0 0 8.5163727,11.84725 Z M 5.4909104,8.8509106 a 0.40727268,0.40727268 0 0 0 -0.123637,-0.065444 0.43636358,0.43636358 0 0 0 -0.138181,-0.058234 0.62545436,0.62545436 0 0 0 -0.2836374,0 L 4.8145454,8.7709455 4.683637,8.8363895 4.5745468,8.92365 A 0.76363642,0.76363642 0 0 0 4.3636376,9.4545685 0.72727248,0.72727248 0 0 0 4.5745468,9.9709207 0.83636316,0.83636316 0 0 0 4.8145454,10.123653 0.72727248,0.72727248 0 0 0 5.8181828,9.4545685 0.76363642,0.76363642 0 0 0 5.607274,8.9381954 Z M 5.607274,11.847273 A 0.72727248,0.72727248 0 0 0 5.3672734,11.694546 0.72727248,0.72727248 0 0 0 4.945455,11.63635 l -0.1309096,0.04368 a 0.55272718,0.55272718 0 0 0 -0.1309084,0.06542 1.1490906,1.1490906 0 0 0 -0.1090902,0.08725 0.72727248,0.72727248 0 0 0 -0.152728,0.24 0.68363624,0.68363624 0 0 0 0,0.552729 0.83636316,0.83636316 0 0 0 0.152728,0.240003 0.72727248,0.72727248 0 0 0 0.5163626,0.225455 0.61090892,0.61090892 0 0 0 0.276364,-0.05824 0.83636316,0.83636316 0 0 0 0.2400006,-0.152734 0.83636316,0.83636316 0 0 0 0.1527264,-0.24 0.68363624,0.68363624 0 0 0 0,-0.552711 A 0.72727248,0.72727248 0 0 0 5.607274,11.847201 Z M 7.7236346,8.7854556 A 0.72727248,0.72727248 0 0 0 7.4836292,8.9381734 0.76363642,0.76363642 0 0 0 7.272735,9.4545451 0.72727248,0.72727248 0 0 0 8.2763654,10.123641 0.83636316,0.83636316 0 0 0 8.5163708,9.9709058 0.72727248,0.72727248 0 0 0 8.727265,9.4545451 0.76363642,0.76363642 0 0 0 8.5163708,8.9381734 0.72727248,0.72727248 0 0 0 7.7236346,8.7854556 Z m 3.7018184,3.0618174 a 0.83636316,0.83636316 0 0 0 -0.239991,-0.152727 0.72727248,0.72727248 0 0 0 -0.792742,0.152727 0.72727248,0.72727248 0 0 0 -0.152717,0.240009 0.68363624,0.68363624 0 0 0 0,0.552706 0.83636316,0.83636316 0 0 0 0.152717,0.240006 0.72727248,0.72727248 0 0 0 0.516372,0.210912 0.61090892,0.61090892 0 0 0 0.27637,-0.05822 0.83636316,0.83636316 0 0 0 0.239991,-0.152733 0.72727248,0.72727248 0 0 0 0.152735,-0.792717 0.72727248,0.72727248 0 0 0 -0.152735,-0.239986 z M 10.909092,2.9090906 H 5.0909094 A 0.72727248,0.72727248 0 0 0 4.3636376,3.6363624 V 6.545453 A 0.72727248,0.72727248 0 0 0 5.0909094,7.272719 H 10.909092 A 0.72727248,0.72727248 0 0 0 11.63636,6.545453 V 3.6363624 A 0.72727248,0.72727248 0 0 0 10.909092,2.9090906 Z M 10.181815,5.8181812 H 5.8181828 V 4.3636358 H 10.181815 Z M 12.363641,0 H 3.6363638 A 2.1818168,2.1818168 0 0 0 1.454547,2.1818168 V 13.818168 A 2.1818168,2.1818168 0 0 0 3.6363638,16 h 8.7272772 a 2.1818168,2.1818168 0 0 0 2.181812,-2.181832 V 2.1818168 A 2.1818168,2.1818168 0 0 0 12.363641,0 Z m 0.727264,13.818168 a 0.72727248,0.72727248 0 0 1 -0.727264,0.727288 H 3.6363638 A 0.72727248,0.72727248 0 0 1 2.9090926,13.818168 V 2.1818168 A 0.72727248,0.72727248 0 0 1 3.6363638,1.4545456 h 8.7272772 a 0.72727248,0.72727248 0 0 1 0.727264,0.7272712 z M 11.309083,8.8509106 a 0.40727268,0.40727268 0 0 0 -0.123621,-0.065444 0.43636358,0.43636358 0 0 0 -0.138195,-0.043713 0.62545436,0.62545436 0 0 0 -0.283633,0 l -0.130907,0.043713 -0.130904,0.065444 -0.109103,0.087261 A 0.76363642,0.76363642 0 0 0 10.181815,9.4545443 0.72727248,0.72727248 0 0 0 11.185462,10.12364 0.83636316,0.83636316 0 0 0 11.425453,9.9709039 0.72727248,0.72727248 0 0 0 11.63636,9.4545443 0.76363642,0.76363642 0 0 0 11.425453,8.938172 Z" />
</svg>
