<?xml version="1.0" encoding="UTF-8" standalone="no"?>
<svg
   xmlns:dc="http://purl.org/dc/elements/1.1/"
   xmlns:cc="http://creativecommons.org/ns#"
   xmlns:rdf="http://www.w3.org/1999/02/22-rdf-syntax-ns#"
   xmlns:svg="http://www.w3.org/2000/svg"
   xmlns="http://www.w3.org/2000/svg"
   xmlns:sodipodi="http://sodipodi.sourceforge.net/DTD/sodipodi-0.dtd"
   xmlns:inkscape="http://www.inkscape.org/namespaces/inkscape"
   inkscape:version="1.0 (4035a4fb49, 2020-05-01)"
   height="16"
   width="16"
   sodipodi:docname="magnifiying-glass-freepik2.svg"
   xml:space="preserve"
   viewBox="0 0 15.999999 15.999999"
   y="0px"
   x="0px"
   id="Capa_1"
   version="1.1"><metadata
   id="metadata39"><rdf:RDF><cc:Work
       rdf:about=""><dc:format>image/svg+xml</dc:format><dc:type
         rdf:resource="http://purl.org/dc/dcmitype/StillImage" /><dc:title></dc:title></cc:Work></rdf:RDF></metadata><defs
   id="defs37" /><sodipodi:namedview
   inkscape:current-layer="Capa_1"
   inkscape:window-maximized="1"
   inkscape:window-y="-8"
   inkscape:window-x="-8"
   inkscape:cy="46.633791"
   inkscape:cx="48.910856"
   inkscape:zoom="5.6568542"
   showgrid="false"
   id="namedview35"
   inkscape:window-height="1017"
   inkscape:window-width="1920"
   inkscape:pageshadow="2"
   inkscape:pageopacity="0"
   guidetolerance="10"
   gridtolerance="10"
   objecttolerance="10"
   borderopacity="1"
   bordercolor="#666666"
   pagecolor="#ffffff" />
<path
   style="stroke-width:0.0829425"
   id="path2"
   d="M 15.817723,14.938035 11.912954,11.033349 C 12.883548,9.8661813 13.468293,8.3674095 13.468293,6.7343538 13.468293,3.0210162 10.44736,0 6.7341879,0 3.0209333,0 0,3.0210162 0,6.7343538 0,10.447443 3.0209333,13.46821 6.7341879,13.46821 c 1.6329728,0 3.1318275,-0.584662 4.2989951,-1.555256 l 3.904852,3.904769 c 0.121428,0.121511 0.280677,0.182225 0.439844,0.182225 0.159167,0 0.318417,-0.06071 0.439927,-0.182225 0.242939,-0.242938 0.242939,-0.63675 -8.3e-5,-0.879688 z M 1.2441381,6.7343538 c 0,-3.0273198 2.4628129,-5.4902157 5.4900498,-5.4902157 3.027154,0 5.4898841,2.4628959 5.4898841,5.4902157 0,3.027071 -2.4627301,5.4897182 -5.4898841,5.4897182 -3.0272369,0 -5.4900498,-2.4626472 -5.4900498,-5.4897182 z" />
<g
   id="g4">
</g>
<g
   id="g6">
</g>
<g
   id="g8">
</g>
<g
   id="g10">
</g>
<g
   id="g12">
</g>
<g
   id="g14">
</g>
<g
   id="g16">
</g>
<g
   id="g18">
</g>
<g
   id="g20">
</g>
<g
   id="g22">
</g>
<g
   id="g24">
</g>
<g
   id="g26">
</g>
<g
   id="g28">
</g>
<g
   id="g30">
</g>
<g
   id="g32">
</g>
</svg>
